<svg width="25" height="26" viewBox="0 0 25 26" fill="none" xmlns="http://www.w3.org/2000/svg">
<path d="M6.25 18.2083C6.25 16.125 10.4167 14.9792 12.5 14.9792C14.5833 14.9792 18.75 16.125 18.75 18.2083V19.25H6.25M15.625 9.875C15.625 10.7038 15.2958 11.4987 14.7097 12.0847C14.1237 12.6708 13.3288 13 12.5 13C11.6712 13 10.8763 12.6708 10.2903 12.0847C9.70424 11.4987 9.375 10.7038 9.375 9.875C9.375 9.0462 9.70424 8.25134 10.2903 7.66529C10.8763 7.07924 11.6712 6.75 12.5 6.75C13.3288 6.75 14.1237 7.07924 14.7097 7.66529C15.2958 8.25134 15.625 9.0462 15.625 9.875ZM3.125 5.70833V20.2917C3.125 20.8442 3.34449 21.3741 3.73519 21.7648C4.12589 22.1555 4.6558 22.375 5.20833 22.375H19.7917C20.3442 22.375 20.8741 22.1555 21.2648 21.7648C21.6555 21.3741 21.875 20.8442 21.875 20.2917V5.70833C21.875 5.1558 21.6555 4.62589 21.2648 4.23519C20.8741 3.84449 20.3442 3.625 19.7917 3.625H5.20833C4.6558 3.625 4.12589 3.84449 3.73519 4.23519C3.34449 4.62589 3.125 5.1558 3.125 5.70833Z" fill="#637381"/>
</svg>
