<svg width="26" height="24" viewBox="0 0 26 24" fill="none" xmlns="http://www.w3.org/2000/svg">
<g filter="url(#filter0_d_431_2294)">
<path d="M7.79165 13.0834H9.5104C9.64929 13.0834 9.78401 13.0573 9.91457 13.0052C10.0451 12.9532 10.1621 12.875 10.2656 12.7709L15.1354 7.87504C15.2916 7.71879 15.409 7.54067 15.4875 7.34067C15.566 7.14067 15.6048 6.94553 15.6041 6.75525C15.6035 6.56497 15.5646 6.37851 15.4875 6.19587C15.4104 6.01324 15.3017 5.84379 15.1614 5.68754L14.1979 4.69796C14.0416 4.54171 13.868 4.42469 13.6771 4.34692C13.4861 4.26914 13.2864 4.2299 13.0781 4.22921C12.8871 4.22921 12.6962 4.26844 12.5052 4.34692C12.3142 4.42539 12.1406 4.5424 11.9844 4.69796L7.06248 9.56775C6.95831 9.67192 6.88019 9.78928 6.82811 9.91983C6.77602 10.0504 6.74998 10.1848 6.74998 10.323V12.0417C6.74998 12.3368 6.84998 12.5844 7.04998 12.7844C7.24998 12.9844 7.4972 13.0841 7.79165 13.0834ZM13.0521 7.77087L12.0625 6.80733L13.0781 5.79171L14.0416 6.78129L13.0521 7.77087ZM12.1666 13.0834H18.2083C18.5035 13.0834 18.751 12.9834 18.951 12.7834C19.151 12.5834 19.2507 12.3362 19.25 12.0417C19.2493 11.7473 19.1493 11.5 18.95 11.3C18.7507 11.1 18.5035 11 18.2083 11H14.25L12.1666 13.0834ZM6.74998 17.25L4.35415 19.6459C4.02429 19.9757 3.64651 20.0497 3.22081 19.8677C2.79512 19.6858 2.58262 19.3601 2.58331 18.8907V2.66671C2.58331 2.09379 2.78748 1.60351 3.19581 1.19587C3.60415 0.788235 4.09443 0.584068 4.66665 0.583374H21.3333C21.9062 0.583374 22.3969 0.787541 22.8052 1.19587C23.2135 1.60421 23.4173 2.09449 23.4167 2.66671V15.1667C23.4167 15.7396 23.2128 16.2302 22.8052 16.6386C22.3976 17.0469 21.9069 17.2507 21.3333 17.25H6.74998Z" fill="white"/>
</g>
<defs>
<filter id="filter0_d_431_2294" x="-1.41669" y="0.583374" width="28.8333" height="27.3813" filterUnits="userSpaceOnUse" color-interpolation-filters="sRGB">
<feFlood flood-opacity="0" result="BackgroundImageFix"/>
<feColorMatrix in="SourceAlpha" type="matrix" values="0 0 0 0 0 0 0 0 0 0 0 0 0 0 0 0 0 0 127 0" result="hardAlpha"/>
<feOffset dy="4"/>
<feGaussianBlur stdDeviation="2"/>
<feComposite in2="hardAlpha" operator="out"/>
<feColorMatrix type="matrix" values="0 0 0 0 0 0 0 0 0 0 0 0 0 0 0 0 0 0 0.25 0"/>
<feBlend mode="normal" in2="BackgroundImageFix" result="effect1_dropShadow_431_2294"/>
<feBlend mode="normal" in="SourceGraphic" in2="effect1_dropShadow_431_2294" result="shape"/>
</filter>
</defs>
</svg>
