<svg width="25" height="26" viewBox="0 0 25 26" fill="none" xmlns="http://www.w3.org/2000/svg">
<path d="M7.29183 15.0834H9.01058C9.14947 15.0834 9.28419 15.0573 9.41475 15.0052C9.5453 14.9532 9.66232 14.875 9.76579 14.7709L14.6356 9.87504C14.7918 9.71879 14.9092 9.54067 14.9877 9.34067C15.0661 9.14067 15.105 8.94553 15.1043 8.75525C15.1036 8.56497 15.0647 8.37851 14.9877 8.19587C14.9106 8.01324 14.8019 7.84379 14.6616 7.68754L13.6981 6.69796C13.5418 6.54171 13.3682 6.42469 13.1772 6.34692C12.9863 6.26914 12.7866 6.2299 12.5783 6.22921C12.3873 6.22921 12.1963 6.26844 12.0054 6.34692C11.8144 6.42539 11.6408 6.5424 11.4845 6.69796L6.56266 11.5677C6.4585 11.6719 6.38037 11.7893 6.32829 11.9198C6.27621 12.0504 6.25016 12.1848 6.25016 12.323V14.0417C6.25016 14.3368 6.35016 14.5844 6.55016 14.7844C6.75016 14.9844 6.99739 15.0841 7.29183 15.0834ZM12.5522 9.77087L11.5627 8.80733L12.5783 7.79171L13.5418 8.78129L12.5522 9.77087ZM11.6668 15.0834H17.7085C18.0036 15.0834 18.2512 14.9834 18.4512 14.7834C18.6512 14.5834 18.7509 14.3362 18.7502 14.0417C18.7495 13.7473 18.6495 13.5 18.4502 13.3C18.2509 13.1 18.0036 13 17.7085 13H13.7502L11.6668 15.0834ZM6.25016 19.25L3.85433 21.6459C3.52447 21.9757 3.14669 22.0497 2.721 21.8677C2.2953 21.6858 2.0828 21.3601 2.0835 20.8907V4.66671C2.0835 4.09379 2.28766 3.60351 2.696 3.19587C3.10433 2.78824 3.59461 2.58407 4.16683 2.58337H20.8335C21.4064 2.58337 21.897 2.78754 22.3054 3.19587C22.7137 3.60421 22.9175 4.09449 22.9168 4.66671V17.1667C22.9168 17.7396 22.713 18.2302 22.3054 18.6386C21.8977 19.0469 21.4071 19.2507 20.8335 19.25H6.25016Z" fill="#637381"/>
</svg>
