<svg width="31" height="31" viewBox="0 0 31 31" fill="none" xmlns="http://www.w3.org/2000/svg">
<path d="M8.93758 22.0625L19.1459 19.1458L22.0626 8.93746L11.8542 11.8541L8.93758 22.0625ZM15.5001 17.6875C14.8924 17.6875 14.3759 17.4748 13.9506 17.0494C13.5253 16.6241 13.3126 16.1076 13.3126 15.5C13.3126 14.8923 13.5253 14.3758 13.9506 13.9505C14.3759 13.5251 14.8924 13.3125 15.5001 13.3125C16.1077 13.3125 16.6242 13.5251 17.0496 13.9505C17.4749 14.3758 17.6876 14.8923 17.6876 15.5C17.6876 16.1076 17.4749 16.6241 17.0496 17.0494C16.6242 17.4748 16.1077 17.6875 15.5001 17.6875ZM15.5001 30.0833C13.4827 30.0833 11.5869 29.7005 9.81258 28.9349C8.03828 28.1692 6.49487 27.1302 5.18237 25.8177C3.86987 24.5052 2.83081 22.9618 2.06519 21.1875C1.29956 19.4132 0.916748 17.5173 0.916748 15.5C0.916748 13.4826 1.29956 11.5868 2.06519 9.81246C2.83081 8.03815 3.86987 6.49475 5.18237 5.18225C6.49487 3.86975 8.03828 2.83069 9.81258 2.06506C11.5869 1.29944 13.4827 0.916626 15.5001 0.916626C17.5174 0.916626 19.4133 1.29944 21.1876 2.06506C22.9619 2.83069 24.5053 3.86975 25.8178 5.18225C27.1303 6.49475 28.1694 8.03815 28.935 9.81246C29.7006 11.5868 30.0834 13.4826 30.0834 15.5C30.0834 17.5173 29.7006 19.4132 28.935 21.1875C28.1694 22.9618 27.1303 24.5052 25.8178 25.8177C24.5053 27.1302 22.9619 28.1692 21.1876 28.9349C19.4133 29.7005 17.5174 30.0833 15.5001 30.0833ZM15.5001 27.1666C18.7327 27.1666 21.4853 26.0303 23.7579 23.7578C26.0305 21.4852 27.1667 18.7326 27.1667 15.5C27.1667 12.2673 26.0305 9.51472 23.7579 7.24215C21.4853 4.96958 18.7327 3.83329 15.5001 3.83329C12.2674 3.83329 9.51484 4.96958 7.24227 7.24215C4.9697 9.51472 3.83341 12.2673 3.83341 15.5C3.83341 18.7326 4.9697 21.4852 7.24227 23.7578C9.51484 26.0303 12.2674 27.1666 15.5001 27.1666Z" fill="white"/>
</svg>
