<svg width="26" height="26" viewBox="0 0 26 26" fill="none" xmlns="http://www.w3.org/2000/svg">
<path d="M22.375 2.84375L20.8125 2.0625L19.25 2.84375L17.6875 2.0625L16.125 2.84375L14.5625 2.0625L13 2.84375L11.4375 2.0625L9.875 2.84375L7.53125 2.0625V14.5649H18.4688V21.2031C18.4688 22.7134 20.0835 23.9375 21.5938 23.9375H22.1797C23.6899 23.9375 24.7188 22.7134 24.7188 21.2031V2.0625L22.375 2.84375ZM13.8057 12.2188L13.7812 10.6562H21.5693L21.5938 12.2188H13.8057ZM10.6807 8.3125L10.6562 6.75H21.5693L21.5938 8.3125H10.6807Z" fill="white"/>
<path d="M16.9062 21.2031V16.125H1.28125V17.6875C1.28125 20.1558 1.56348 21.1846 1.9873 21.9663C2.70654 23.293 4.00879 23.9375 5.96875 23.9375H18.4688C18.4688 23.9375 16.9062 22.9609 16.9062 21.2031Z" fill="white"/>
</svg>
