<svg width="25" height="26" viewBox="0 0 25 26" fill="none" xmlns="http://www.w3.org/2000/svg">
<path d="M21.875 2.84375L20.3125 2.0625L18.75 2.84375L17.1875 2.0625L15.625 2.84375L14.0625 2.0625L12.5 2.84375L10.9375 2.0625L9.375 2.84375L7.03125 2.0625V14.5649H17.9688V21.2031C17.9688 22.7134 19.5835 23.9375 21.0938 23.9375H21.6797C23.1899 23.9375 24.2188 22.7134 24.2188 21.2031V2.0625L21.875 2.84375ZM13.3057 12.2188L13.2812 10.6562H21.0693L21.0938 12.2188H13.3057ZM10.1807 8.3125L10.1562 6.75H21.0693L21.0938 8.3125H10.1807Z" fill="#637381"/>
<path d="M16.4062 21.2031V16.125H0.78125V17.6875C0.78125 20.1558 1.06348 21.1846 1.4873 21.9663C2.20654 23.293 3.50879 23.9375 5.46875 23.9375H17.9688C17.9688 23.9375 16.4062 22.9609 16.4062 21.2031Z" fill="#637381"/>
</svg>
