<svg width="20" height="21" viewBox="0 0 20 21" fill="none" xmlns="http://www.w3.org/2000/svg">
<path d="M3.85 15.2667C4.7 14.6167 5.65 14.1042 6.7 13.7292C7.75 13.3542 8.85 13.1667 10 13.1667C11.15 13.1667 12.25 13.3542 13.3 13.7292C14.35 14.1042 15.3 14.6167 16.15 15.2667C16.7333 14.5834 17.1875 13.8084 17.5125 12.9417C17.8375 12.075 18 11.15 18 10.1667C18 7.95002 17.2208 6.06252 15.6625 4.50419C14.1042 2.94585 12.2167 2.16669 10 2.16669C7.78333 2.16669 5.89583 2.94585 4.3375 4.50419C2.77917 6.06252 2 7.95002 2 10.1667C2 11.15 2.1625 12.075 2.4875 12.9417C2.8125 13.8084 3.26667 14.5834 3.85 15.2667ZM10 11.1667C9.01667 11.1667 8.1875 10.8292 7.5125 10.1542C6.8375 9.47919 6.5 8.65002 6.5 7.66669C6.5 6.68335 6.8375 5.85419 7.5125 5.17919C8.1875 4.50419 9.01667 4.16669 10 4.16669C10.9833 4.16669 11.8125 4.50419 12.4875 5.17919C13.1625 5.85419 13.5 6.68335 13.5 7.66669C13.5 8.65002 13.1625 9.47919 12.4875 10.1542C11.8125 10.8292 10.9833 11.1667 10 11.1667ZM10 20.1667C8.61667 20.1667 7.31667 19.9042 6.1 19.3792C4.88333 18.8542 3.825 18.1417 2.925 17.2417C2.025 16.3417 1.3125 15.2834 0.7875 14.0667C0.2625 12.85 0 11.55 0 10.1667C0 8.78335 0.2625 7.48335 0.7875 6.26669C1.3125 5.05002 2.025 3.99169 2.925 3.09169C3.825 2.19169 4.88333 1.47919 6.1 0.954187C7.31667 0.429187 8.61667 0.166687 10 0.166687C11.3833 0.166687 12.6833 0.429187 13.9 0.954187C15.1167 1.47919 16.175 2.19169 17.075 3.09169C17.975 3.99169 18.6875 5.05002 19.2125 6.26669C19.7375 7.48335 20 8.78335 20 10.1667C20 11.55 19.7375 12.85 19.2125 14.0667C18.6875 15.2834 17.975 16.3417 17.075 17.2417C16.175 18.1417 15.1167 18.8542 13.9 19.3792C12.6833 19.9042 11.3833 20.1667 10 20.1667ZM10 18.1667C10.8833 18.1667 11.7167 18.0375 12.5 17.7792C13.2833 17.5209 14 17.15 14.65 16.6667C14 16.1834 13.2833 15.8125 12.5 15.5542C11.7167 15.2959 10.8833 15.1667 10 15.1667C9.11667 15.1667 8.28333 15.2959 7.5 15.5542C6.71667 15.8125 6 16.1834 5.35 16.6667C6 17.15 6.71667 17.5209 7.5 17.7792C8.28333 18.0375 9.11667 18.1667 10 18.1667ZM10 9.16669C10.4333 9.16669 10.7917 9.02502 11.075 8.74169C11.3583 8.45835 11.5 8.10002 11.5 7.66669C11.5 7.23335 11.3583 6.87502 11.075 6.59169C10.7917 6.30835 10.4333 6.16669 10 6.16669C9.56667 6.16669 9.20833 6.30835 8.925 6.59169C8.64167 6.87502 8.5 7.23335 8.5 7.66669C8.5 8.10002 8.64167 8.45835 8.925 8.74169C9.20833 9.02502 9.56667 9.16669 10 9.16669Z" fill="#1F1F1F"/>
</svg>
