<svg width="31" height="31" viewBox="0 0 31 31" fill="none" xmlns="http://www.w3.org/2000/svg">
<path d="M6.53133 22.9375C7.77091 21.9895 9.15633 21.2421 10.6876 20.6953C12.2188 20.1484 13.823 19.875 15.5001 19.875C17.1772 19.875 18.7813 20.1484 20.3126 20.6953C21.8438 21.2421 23.2292 21.9895 24.4688 22.9375C25.3195 21.9409 25.9819 20.8107 26.4558 19.5468C26.9298 18.2829 27.1667 16.934 27.1667 15.5C27.1667 12.2673 26.0305 9.51472 23.7579 7.24215C21.4853 4.96958 18.7327 3.83329 15.5001 3.83329C12.2674 3.83329 9.51484 4.96958 7.24227 7.24215C4.9697 9.51472 3.83341 12.2673 3.83341 15.5C3.83341 16.934 4.07039 18.2829 4.54435 19.5468C5.01831 20.8107 5.68064 21.9409 6.53133 22.9375ZM15.5001 16.9583C14.0661 16.9583 12.8569 16.4661 11.8725 15.4817C10.8881 14.4974 10.3959 13.2882 10.3959 11.8541C10.3959 10.4201 10.8881 9.2109 11.8725 8.22652C12.8569 7.24215 14.0661 6.74996 15.5001 6.74996C16.9341 6.74996 18.1433 7.24215 19.1277 8.22652C20.1121 9.2109 20.6042 10.4201 20.6042 11.8541C20.6042 13.2882 20.1121 14.4974 19.1277 15.4817C18.1433 16.4661 16.9341 16.9583 15.5001 16.9583ZM15.5001 30.0833C13.4827 30.0833 11.5869 29.7005 9.81258 28.9349C8.03828 28.1692 6.49487 27.1302 5.18237 25.8177C3.86987 24.5052 2.83081 22.9618 2.06519 21.1875C1.29956 19.4132 0.916748 17.5173 0.916748 15.5C0.916748 13.4826 1.29956 11.5868 2.06519 9.81246C2.83081 8.03815 3.86987 6.49475 5.18237 5.18225C6.49487 3.86975 8.03828 2.83069 9.81258 2.06506C11.5869 1.29944 13.4827 0.916626 15.5001 0.916626C17.5174 0.916626 19.4133 1.29944 21.1876 2.06506C22.9619 2.83069 24.5053 3.86975 25.8178 5.18225C27.1303 6.49475 28.1694 8.03815 28.935 9.81246C29.7006 11.5868 30.0834 13.4826 30.0834 15.5C30.0834 17.5173 29.7006 19.4132 28.935 21.1875C28.1694 22.9618 27.1303 24.5052 25.8178 25.8177C24.5053 27.1302 22.9619 28.1692 21.1876 28.9349C19.4133 29.7005 17.5174 30.0833 15.5001 30.0833ZM15.5001 27.1666C16.7883 27.1666 18.0036 26.9783 19.1459 26.6015C20.2883 26.2248 21.3334 25.684 22.2813 24.9791C21.3334 24.2743 20.2883 23.7335 19.1459 23.3567C18.0036 22.98 16.7883 22.7916 15.5001 22.7916C14.2119 22.7916 12.9966 22.98 11.8542 23.3567C10.7119 23.7335 9.66675 24.2743 8.71883 24.9791C9.66675 25.684 10.7119 26.2248 11.8542 26.6015C12.9966 26.9783 14.2119 27.1666 15.5001 27.1666ZM15.5001 14.0416C16.132 14.0416 16.6546 13.835 17.0678 13.4218C17.481 13.0086 17.6876 12.4861 17.6876 11.8541C17.6876 11.2222 17.481 10.6996 17.0678 10.2864C16.6546 9.87322 16.132 9.66663 15.5001 9.66663C14.8681 9.66663 14.3456 9.87322 13.9324 10.2864C13.5192 10.6996 13.3126 11.2222 13.3126 11.8541C13.3126 12.4861 13.5192 13.0086 13.9324 13.4218C14.3456 13.835 14.8681 14.0416 15.5001 14.0416Z" fill="white"/>
</svg>
