<svg width="25" height="26" viewBox="0 0 25 26" fill="none" xmlns="http://www.w3.org/2000/svg">
<path d="M22.3022 12.5625L12.9272 3.18754C12.5522 2.81254 12.0314 2.58337 11.4585 2.58337H4.16683C3.021 2.58337 2.0835 3.52087 2.0835 4.66671V11.9584C2.0835 12.5313 2.31266 13.0521 2.69808 13.4375L12.0731 22.8125C12.4481 23.1875 12.9689 23.4167 13.5418 23.4167C14.1147 23.4167 14.6356 23.1875 15.0106 22.8021L22.3022 15.5105C22.6877 15.1355 22.9168 14.6146 22.9168 14.0417C22.9168 13.4688 22.6772 12.9375 22.3022 12.5625ZM5.72933 7.79171C4.86475 7.79171 4.16683 7.09379 4.16683 6.22921C4.16683 5.36462 4.86475 4.66671 5.72933 4.66671C6.59391 4.66671 7.29183 5.36462 7.29183 6.22921C7.29183 7.09379 6.59391 7.79171 5.72933 7.79171Z" fill="#637381"/>
</svg>
