<svg width="22" height="22" viewBox="0 0 22 22" fill="none" xmlns="http://www.w3.org/2000/svg">
<path d="M20.8021 10.5625L11.4271 1.18754C11.0521 0.812541 10.5313 0.583374 9.95837 0.583374H2.66671C1.52087 0.583374 0.583374 1.52087 0.583374 2.66671V9.95837C0.583374 10.5313 0.812541 11.0521 1.19796 11.4375L10.573 20.8125C10.948 21.1875 11.4688 21.4167 12.0417 21.4167C12.6146 21.4167 13.1355 21.1875 13.5105 20.8021L20.8021 13.5105C21.1875 13.1355 21.4167 12.6146 21.4167 12.0417C21.4167 11.4688 21.1771 10.9375 20.8021 10.5625ZM4.22921 5.79171C3.36462 5.79171 2.66671 5.09379 2.66671 4.22921C2.66671 3.36462 3.36462 2.66671 4.22921 2.66671C5.09379 2.66671 5.79171 3.36462 5.79171 4.22921C5.79171 5.09379 5.09379 5.79171 4.22921 5.79171Z" fill="white"/>
</svg>
