<svg width="28" height="28" viewBox="0 0 27 28" fill="none" xmlns="http://www.w3.org/2000/svg">
<path d="M13.5 27.125C11.6771 27.125 9.96962 26.7786 8.3776 26.0859C6.78559 25.3932 5.40017 24.4575 4.22135 23.2786C3.04253 22.0998 2.10677 20.7144 1.41406 19.1224C0.721354 17.5304 0.375 15.8229 0.375 14C0.375 12.1771 0.721354 10.4696 1.41406 8.8776C2.10677 7.28559 3.04253 5.90017 4.22135 4.72135C5.40017 3.54253 6.78559 2.60677 8.3776 1.91406C9.96962 1.22135 11.6771 0.875 13.5 0.875C15.4931 0.875 17.3828 1.30035 19.1693 2.15104C20.9557 3.00174 22.4688 4.20486 23.7083 5.76042V2.33333H26.625V11.0833H17.875V8.16667H21.8854C20.8889 6.80556 19.6615 5.73611 18.2031 4.95833C16.7448 4.18056 15.1771 3.79167 13.5 3.79167C10.6562 3.79167 8.24392 4.78212 6.26302 6.76302C4.28212 8.74392 3.29167 11.1562 3.29167 14C3.29167 16.8437 4.28212 19.2561 6.26302 21.237C8.24392 23.2179 10.6562 24.2083 13.5 24.2083C16.0521 24.2083 18.2821 23.3819 20.1901 21.7292C22.0981 20.0764 23.2222 17.9861 23.5625 15.4583H26.5521C26.1875 18.7882 24.7595 21.5651 22.2682 23.7891C19.7769 26.013 16.8542 27.125 13.5 27.125ZM17.5833 20.125L12.0417 14.5833V6.70833H14.9583V13.4167L19.625 18.0833L17.5833 20.125Z" fill="white"/>
</svg>
