<svg width="35" height="36" viewBox="0 0 35 36" fill="none" xmlns="http://www.w3.org/2000/svg">
<path d="M28.5698 31.1221L19.3842 21.9366C18.6552 22.5198 17.8168 22.9815 16.8691 23.3217C15.9214 23.6619 14.9129 23.832 13.8437 23.832C11.195 23.832 8.95328 22.9147 7.1186 21.08C5.28392 19.2453 4.36658 17.0036 4.36658 14.3548C4.36658 11.7061 5.28392 9.46439 7.1186 7.62971C8.95328 5.79503 11.195 4.87769 13.8437 4.87769C16.4925 4.87769 18.7342 5.79503 20.5689 7.62971C22.4035 9.46439 23.3209 11.7061 23.3209 14.3548C23.3209 15.4241 23.1508 16.4325 22.8106 17.3802C22.4704 18.328 22.0087 19.1663 21.4254 19.8953L30.611 29.0809L28.5698 31.1221ZM13.8437 20.9159C15.6663 20.9159 17.2154 20.2781 18.4912 19.0023C19.7669 17.7265 20.4048 16.1774 20.4048 14.3548C20.4048 12.5323 19.7669 10.9832 18.4912 9.70739C17.2154 8.43162 15.6663 7.79373 13.8437 7.79373C12.0212 7.79373 10.472 8.43162 9.19628 9.70739C7.92051 10.9832 7.28262 12.5323 7.28262 14.3548C7.28262 16.1774 7.92051 17.7265 9.19628 19.0023C10.472 20.2781 12.0212 20.9159 13.8437 20.9159Z" fill="#005BB5"/>
</svg>
