<svg width="45" height="45" viewBox="0 0 45 45" fill="none" xmlns="http://www.w3.org/2000/svg">
<path d="M36.125 38.75L24.3125 26.9375C23.375 27.6875 22.2969 28.2812 21.0781 28.7188C19.8594 29.1562 18.5625 29.375 17.1875 29.375C13.7812 29.375 10.8984 28.1953 8.53906 25.8359C6.17969 23.4766 5 20.5938 5 17.1875C5 13.7812 6.17969 10.8984 8.53906 8.53906C10.8984 6.17969 13.7812 5 17.1875 5C20.5938 5 23.4766 6.17969 25.8359 8.53906C28.1953 10.8984 29.375 13.7812 29.375 17.1875C29.375 18.5625 29.1562 19.8594 28.7188 21.0781C28.2812 22.2969 27.6875 23.375 26.9375 24.3125L38.75 36.125L36.125 38.75ZM17.1875 25.625C19.5312 25.625 21.5234 24.8047 23.1641 23.1641C24.8047 21.5234 25.625 19.5312 25.625 17.1875C25.625 14.8438 24.8047 12.8516 23.1641 11.2109C21.5234 9.57031 19.5312 8.75 17.1875 8.75C14.8438 8.75 12.8516 9.57031 11.2109 11.2109C9.57031 12.8516 8.75 14.8438 8.75 17.1875C8.75 19.5312 9.57031 21.5234 11.2109 23.1641C12.8516 24.8047 14.8438 25.625 17.1875 25.625Z" fill="white"/>
</svg>
