<svg width="16" height="21" viewBox="0 0 16 21" fill="none" xmlns="http://www.w3.org/2000/svg">
<path d="M6.5 13.1667H9.5L8.925 9.94169C9.25833 9.77502 9.52083 9.53335 9.7125 9.21669C9.90417 8.90002 10 8.55002 10 8.16669C10 7.61669 9.80417 7.14585 9.4125 6.75419C9.02083 6.36252 8.55 6.16669 8 6.16669C7.45 6.16669 6.97917 6.36252 6.5875 6.75419C6.19583 7.14585 6 7.61669 6 8.16669C6 8.55002 6.09583 8.90002 6.2875 9.21669C6.47917 9.53335 6.74167 9.77502 7.075 9.94169L6.5 13.1667ZM8 20.1667C5.68333 19.5834 3.77083 18.2542 2.2625 16.1792C0.754167 14.1042 0 11.8 0 9.26669V3.16669L8 0.166687L16 3.16669V9.26669C16 11.8 15.2458 14.1042 13.7375 16.1792C12.2292 18.2542 10.3167 19.5834 8 20.1667ZM8 18.0667C9.73333 17.5167 11.1667 16.4167 12.3 14.7667C13.4333 13.1167 14 11.2834 14 9.26669V4.54169L8 2.29169L2 4.54169V9.26669C2 11.2834 2.56667 13.1167 3.7 14.7667C4.83333 16.4167 6.26667 17.5167 8 18.0667Z" fill="#1F1F1F"/>
</svg>
